<mxfile host="app.diagrams.net" modified="2023-12-04T19:51:20.330Z" agent="Mozilla/5.0 (Windows NT 6.3; Win64; x64) AppleWebKit/537.36 (KHTML, like Gecko) Chrome/109.0.0.0 Safari/537.36 OPR/95.0.0.0" etag="Lp8jDn51cLzwkAkn1epC" version="22.1.5" type="device">
  <diagram name="Страница — 1" id="syPpNSsq6QE5tAF1wLqR">
    <mxGraphModel dx="1593" dy="2020" grid="1" gridSize="10" guides="1" tooltips="1" connect="1" arrows="1" fold="1" page="1" pageScale="1" pageWidth="827" pageHeight="1169" math="0" shadow="0">
      <root>
        <mxCell id="0" />
        <mxCell id="1" parent="0" />
        <mxCell id="xWCHFZRPRNQeNoZsIVFs-1" value="" style="rounded=0;whiteSpace=wrap;html=1;" vertex="1" parent="1">
          <mxGeometry x="250" y="130" width="360" height="360" as="geometry" />
        </mxCell>
        <mxCell id="xWCHFZRPRNQeNoZsIVFs-4" value="" style="rounded=1;whiteSpace=wrap;html=1;" vertex="1" parent="1">
          <mxGeometry x="260" y="170" width="340" height="90" as="geometry" />
        </mxCell>
        <mxCell id="xWCHFZRPRNQeNoZsIVFs-5" value="" style="rounded=1;whiteSpace=wrap;html=1;" vertex="1" parent="1">
          <mxGeometry x="260" y="280" width="340" height="90" as="geometry" />
        </mxCell>
        <mxCell id="xWCHFZRPRNQeNoZsIVFs-6" value="&lt;h1&gt;BlogUser&lt;/h1&gt;" style="text;html=1;strokeColor=none;fillColor=none;spacing=5;spacingTop=-20;whiteSpace=wrap;overflow=hidden;rounded=0;" vertex="1" parent="1">
          <mxGeometry x="260" y="190" width="120" height="40" as="geometry" />
        </mxCell>
        <mxCell id="xWCHFZRPRNQeNoZsIVFs-7" value="&lt;h1&gt;Authentication&lt;/h1&gt;" style="text;html=1;strokeColor=none;fillColor=none;spacing=5;spacingTop=-20;whiteSpace=wrap;overflow=hidden;rounded=0;" vertex="1" parent="1">
          <mxGeometry x="260" y="300" width="190" height="40" as="geometry" />
        </mxCell>
        <mxCell id="xWCHFZRPRNQeNoZsIVFs-8" value="" style="rounded=1;whiteSpace=wrap;html=1;" vertex="1" parent="1">
          <mxGeometry x="260" y="390" width="340" height="80" as="geometry" />
        </mxCell>
        <mxCell id="xWCHFZRPRNQeNoZsIVFs-9" value="&lt;h1&gt;Refresh Token&lt;/h1&gt;" style="text;html=1;strokeColor=none;fillColor=none;spacing=5;spacingTop=-20;whiteSpace=wrap;overflow=hidden;rounded=0;" vertex="1" parent="1">
          <mxGeometry x="260" y="400" width="190" height="40" as="geometry" />
        </mxCell>
        <mxCell id="xWCHFZRPRNQeNoZsIVFs-10" value="Model" style="rounded=1;whiteSpace=wrap;html=1;" vertex="1" parent="1">
          <mxGeometry x="414" y="195" width="76" height="25" as="geometry" />
        </mxCell>
        <mxCell id="xWCHFZRPRNQeNoZsIVFs-11" value="entity" style="rounded=1;whiteSpace=wrap;html=1;" vertex="1" parent="1">
          <mxGeometry x="510" y="180" width="80" height="30" as="geometry" />
        </mxCell>
        <mxCell id="xWCHFZRPRNQeNoZsIVFs-12" value="repository" style="rounded=1;whiteSpace=wrap;html=1;" vertex="1" parent="1">
          <mxGeometry x="510" y="220" width="80" height="30" as="geometry" />
        </mxCell>
        <mxCell id="xWCHFZRPRNQeNoZsIVFs-13" value="JWT" style="rounded=1;whiteSpace=wrap;html=1;" vertex="1" parent="1">
          <mxGeometry x="510" y="290" width="85" height="30" as="geometry" />
        </mxCell>
        <mxCell id="xWCHFZRPRNQeNoZsIVFs-14" value="service" style="rounded=1;whiteSpace=wrap;html=1;" vertex="1" parent="1">
          <mxGeometry x="510" y="330" width="80" height="30" as="geometry" />
        </mxCell>
        <mxCell id="xWCHFZRPRNQeNoZsIVFs-15" value="JWT" style="rounded=1;whiteSpace=wrap;html=1;" vertex="1" parent="1">
          <mxGeometry x="440" y="400" width="50" height="20" as="geometry" />
        </mxCell>
        <mxCell id="xWCHFZRPRNQeNoZsIVFs-16" value="repository" style="rounded=1;whiteSpace=wrap;html=1;" vertex="1" parent="1">
          <mxGeometry x="505" y="430" width="75" height="20" as="geometry" />
        </mxCell>
        <mxCell id="xWCHFZRPRNQeNoZsIVFs-17" value="model" style="rounded=1;whiteSpace=wrap;html=1;" vertex="1" parent="1">
          <mxGeometry x="440" y="430" width="50" height="20" as="geometry" />
        </mxCell>
        <mxCell id="xWCHFZRPRNQeNoZsIVFs-18" value="entity" style="rounded=1;whiteSpace=wrap;html=1;" vertex="1" parent="1">
          <mxGeometry x="510" y="400" width="70" height="20" as="geometry" />
        </mxCell>
        <mxCell id="xWCHFZRPRNQeNoZsIVFs-20" value="USER" style="rounded=0;whiteSpace=wrap;html=1;" vertex="1" parent="1">
          <mxGeometry x="250" y="70" width="120" height="60" as="geometry" />
        </mxCell>
        <mxCell id="xWCHFZRPRNQeNoZsIVFs-21" value="" style="rounded=0;whiteSpace=wrap;html=1;" vertex="1" parent="1">
          <mxGeometry x="760" y="220" width="380" height="220" as="geometry" />
        </mxCell>
        <mxCell id="xWCHFZRPRNQeNoZsIVFs-22" value="" style="rounded=1;whiteSpace=wrap;html=1;" vertex="1" parent="1">
          <mxGeometry x="770" y="230" width="340" height="90" as="geometry" />
        </mxCell>
        <mxCell id="xWCHFZRPRNQeNoZsIVFs-23" value="" style="rounded=1;whiteSpace=wrap;html=1;" vertex="1" parent="1">
          <mxGeometry x="770" y="340" width="340" height="90" as="geometry" />
        </mxCell>
        <mxCell id="xWCHFZRPRNQeNoZsIVFs-24" value="&lt;h1&gt;BlogCategory&lt;/h1&gt;" style="text;html=1;strokeColor=none;fillColor=none;spacing=5;spacingTop=-20;whiteSpace=wrap;overflow=hidden;rounded=0;" vertex="1" parent="1">
          <mxGeometry x="770" y="250" width="170" height="40" as="geometry" />
        </mxCell>
        <mxCell id="xWCHFZRPRNQeNoZsIVFs-25" value="&lt;h1&gt;BlogPost&lt;/h1&gt;" style="text;html=1;strokeColor=none;fillColor=none;spacing=5;spacingTop=-20;whiteSpace=wrap;overflow=hidden;rounded=0;" vertex="1" parent="1">
          <mxGeometry x="770" y="360" width="190" height="40" as="geometry" />
        </mxCell>
        <mxCell id="xWCHFZRPRNQeNoZsIVFs-28" value="Service" style="rounded=1;whiteSpace=wrap;html=1;" vertex="1" parent="1">
          <mxGeometry x="939" y="260" width="76" height="25" as="geometry" />
        </mxCell>
        <mxCell id="xWCHFZRPRNQeNoZsIVFs-29" value="entity" style="rounded=1;whiteSpace=wrap;html=1;" vertex="1" parent="1">
          <mxGeometry x="1020" y="242.5" width="80" height="30" as="geometry" />
        </mxCell>
        <mxCell id="xWCHFZRPRNQeNoZsIVFs-30" value="repository" style="rounded=1;whiteSpace=wrap;html=1;" vertex="1" parent="1">
          <mxGeometry x="1020" y="280" width="80" height="30" as="geometry" />
        </mxCell>
        <mxCell id="xWCHFZRPRNQeNoZsIVFs-37" value="BLOG" style="rounded=0;whiteSpace=wrap;html=1;" vertex="1" parent="1">
          <mxGeometry x="760" y="160" width="120" height="60" as="geometry" />
        </mxCell>
        <mxCell id="xWCHFZRPRNQeNoZsIVFs-38" value="Service" style="rounded=1;whiteSpace=wrap;html=1;" vertex="1" parent="1">
          <mxGeometry x="927" y="370" width="76" height="25" as="geometry" />
        </mxCell>
        <mxCell id="xWCHFZRPRNQeNoZsIVFs-39" value="entity" style="rounded=1;whiteSpace=wrap;html=1;" vertex="1" parent="1">
          <mxGeometry x="1017" y="350" width="80" height="30" as="geometry" />
        </mxCell>
        <mxCell id="xWCHFZRPRNQeNoZsIVFs-40" value="repository" style="rounded=1;whiteSpace=wrap;html=1;" vertex="1" parent="1">
          <mxGeometry x="1017" y="390" width="80" height="30" as="geometry" />
        </mxCell>
        <mxCell id="xWCHFZRPRNQeNoZsIVFs-44" value="" style="endArrow=none;dashed=1;html=1;dashPattern=1 3;strokeWidth=2;rounded=0;entryX=0;entryY=0.75;entryDx=0;entryDy=0;exitX=1;exitY=0.25;exitDx=0;exitDy=0;" edge="1" parent="1" source="xWCHFZRPRNQeNoZsIVFs-1" target="xWCHFZRPRNQeNoZsIVFs-21">
          <mxGeometry width="50" height="50" relative="1" as="geometry">
            <mxPoint x="590" y="330" as="sourcePoint" />
            <mxPoint x="640" y="280" as="targetPoint" />
            <Array as="points">
              <mxPoint x="660" y="220" />
              <mxPoint x="660" y="385" />
            </Array>
          </mxGeometry>
        </mxCell>
        <mxCell id="xWCHFZRPRNQeNoZsIVFs-45" value="" style="rounded=0;whiteSpace=wrap;html=1;" vertex="1" parent="1">
          <mxGeometry x="1270" y="220" width="370" height="220" as="geometry" />
        </mxCell>
        <mxCell id="xWCHFZRPRNQeNoZsIVFs-46" value="" style="rounded=1;whiteSpace=wrap;html=1;" vertex="1" parent="1">
          <mxGeometry x="1280" y="230" width="340" height="90" as="geometry" />
        </mxCell>
        <mxCell id="xWCHFZRPRNQeNoZsIVFs-47" value="" style="rounded=1;whiteSpace=wrap;html=1;" vertex="1" parent="1">
          <mxGeometry x="1280" y="340" width="340" height="90" as="geometry" />
        </mxCell>
        <mxCell id="xWCHFZRPRNQeNoZsIVFs-48" value="&lt;h1&gt;Subscriber&lt;/h1&gt;" style="text;html=1;strokeColor=none;fillColor=none;spacing=5;spacingTop=-20;whiteSpace=wrap;overflow=hidden;rounded=0;" vertex="1" parent="1">
          <mxGeometry x="1280" y="250" width="170" height="40" as="geometry" />
        </mxCell>
        <mxCell id="xWCHFZRPRNQeNoZsIVFs-49" value="&lt;h1&gt;Mail&lt;/h1&gt;" style="text;html=1;strokeColor=none;fillColor=none;spacing=5;spacingTop=-20;whiteSpace=wrap;overflow=hidden;rounded=0;" vertex="1" parent="1">
          <mxGeometry x="1290" y="360" width="190" height="40" as="geometry" />
        </mxCell>
        <mxCell id="xWCHFZRPRNQeNoZsIVFs-50" value="Service" style="rounded=1;whiteSpace=wrap;html=1;" vertex="1" parent="1">
          <mxGeometry x="1450" y="242.5" width="76" height="25" as="geometry" />
        </mxCell>
        <mxCell id="xWCHFZRPRNQeNoZsIVFs-51" value="entity" style="rounded=1;whiteSpace=wrap;html=1;" vertex="1" parent="1">
          <mxGeometry x="1530" y="242.5" width="80" height="30" as="geometry" />
        </mxCell>
        <mxCell id="xWCHFZRPRNQeNoZsIVFs-52" value="repository" style="rounded=1;whiteSpace=wrap;html=1;" vertex="1" parent="1">
          <mxGeometry x="1530" y="280" width="80" height="30" as="geometry" />
        </mxCell>
        <mxCell id="xWCHFZRPRNQeNoZsIVFs-53" value="Notify&lt;br&gt;" style="rounded=0;whiteSpace=wrap;html=1;" vertex="1" parent="1">
          <mxGeometry x="1270" y="160" width="120" height="60" as="geometry" />
        </mxCell>
        <mxCell id="xWCHFZRPRNQeNoZsIVFs-54" value="Service" style="rounded=1;whiteSpace=wrap;html=1;" vertex="1" parent="1">
          <mxGeometry x="1520" y="367.5" width="76" height="25" as="geometry" />
        </mxCell>
        <mxCell id="xWCHFZRPRNQeNoZsIVFs-58" value="Model" style="rounded=1;whiteSpace=wrap;html=1;" vertex="1" parent="1">
          <mxGeometry x="1450" y="280" width="76" height="30" as="geometry" />
        </mxCell>
        <mxCell id="xWCHFZRPRNQeNoZsIVFs-59" value="" style="endArrow=none;dashed=1;html=1;dashPattern=1 3;strokeWidth=2;rounded=0;entryX=0.48;entryY=1.005;entryDx=0;entryDy=0;entryPerimeter=0;" edge="1" parent="1" target="xWCHFZRPRNQeNoZsIVFs-45">
          <mxGeometry width="50" height="50" relative="1" as="geometry">
            <mxPoint x="430" y="490" as="sourcePoint" />
            <mxPoint x="900" y="440" as="targetPoint" />
            <Array as="points">
              <mxPoint x="430" y="600" />
              <mxPoint x="1448" y="600" />
            </Array>
          </mxGeometry>
        </mxCell>
        <mxCell id="xWCHFZRPRNQeNoZsIVFs-60" value="Создание нового пользователя" style="text;html=1;align=center;verticalAlign=middle;resizable=0;points=[];autosize=1;strokeColor=none;fillColor=none;" vertex="1" parent="1">
          <mxGeometry x="460" y="558" width="200" height="30" as="geometry" />
        </mxCell>
        <mxCell id="xWCHFZRPRNQeNoZsIVFs-61" value="" style="endArrow=none;dashed=1;html=1;dashPattern=1 3;strokeWidth=2;rounded=0;exitX=0.3;exitY=1.005;exitDx=0;exitDy=0;exitPerimeter=0;" edge="1" parent="1" source="xWCHFZRPRNQeNoZsIVFs-45">
          <mxGeometry width="50" height="50" relative="1" as="geometry">
            <mxPoint x="1404" y="450" as="sourcePoint" />
            <mxPoint x="920" y="450" as="targetPoint" />
            <Array as="points">
              <mxPoint x="1381" y="530" />
              <mxPoint x="1050" y="530" />
              <mxPoint x="920" y="530" />
            </Array>
          </mxGeometry>
        </mxCell>
        <mxCell id="xWCHFZRPRNQeNoZsIVFs-62" value="Добавление новой публикации" style="text;html=1;align=center;verticalAlign=middle;resizable=0;points=[];autosize=1;strokeColor=none;fillColor=none;" vertex="1" parent="1">
          <mxGeometry x="939" y="490" width="200" height="30" as="geometry" />
        </mxCell>
        <mxCell id="xWCHFZRPRNQeNoZsIVFs-64" value="RabbitMQ" style="shape=cylinder3;whiteSpace=wrap;html=1;boundedLbl=1;backgroundOutline=1;size=15;" vertex="1" parent="1">
          <mxGeometry x="1470" y="-120" width="100" height="120" as="geometry" />
        </mxCell>
        <mxCell id="xWCHFZRPRNQeNoZsIVFs-65" value="PosttgreSQL&lt;br&gt;" style="shape=cylinder3;whiteSpace=wrap;html=1;boundedLbl=1;backgroundOutline=1;size=15;" vertex="1" parent="1">
          <mxGeometry x="927" y="-120" width="100" height="120" as="geometry" />
        </mxCell>
        <mxCell id="xWCHFZRPRNQeNoZsIVFs-66" value="MongoDB" style="shape=cylinder3;whiteSpace=wrap;html=1;boundedLbl=1;backgroundOutline=1;size=15;" vertex="1" parent="1">
          <mxGeometry x="350" y="-130" width="100" height="120" as="geometry" />
        </mxCell>
        <mxCell id="xWCHFZRPRNQeNoZsIVFs-67" value="" style="shape=flexArrow;endArrow=classic;startArrow=classic;html=1;rounded=0;" edge="1" parent="1">
          <mxGeometry width="100" height="100" relative="1" as="geometry">
            <mxPoint x="400" y="120" as="sourcePoint" />
            <mxPoint x="400" y="10" as="targetPoint" />
            <Array as="points">
              <mxPoint x="400" y="70" />
            </Array>
          </mxGeometry>
        </mxCell>
        <mxCell id="xWCHFZRPRNQeNoZsIVFs-68" value="" style="shape=flexArrow;endArrow=classic;startArrow=classic;html=1;rounded=0;" edge="1" parent="1">
          <mxGeometry width="100" height="100" relative="1" as="geometry">
            <mxPoint x="979.33" y="140" as="sourcePoint" />
            <mxPoint x="979.33" y="30" as="targetPoint" />
            <Array as="points" />
          </mxGeometry>
        </mxCell>
        <mxCell id="xWCHFZRPRNQeNoZsIVFs-69" value="" style="shape=flexArrow;endArrow=classic;startArrow=classic;html=1;rounded=0;" edge="1" parent="1">
          <mxGeometry width="100" height="100" relative="1" as="geometry">
            <mxPoint x="1530" y="160" as="sourcePoint" />
            <mxPoint x="1530" y="50" as="targetPoint" />
            <Array as="points">
              <mxPoint x="1530" y="110" />
            </Array>
          </mxGeometry>
        </mxCell>
        <mxCell id="xWCHFZRPRNQeNoZsIVFs-71" value="API GATEWAY" style="swimlane;whiteSpace=wrap;html=1;" vertex="1" parent="1">
          <mxGeometry x="865" y="-520" width="200" height="110" as="geometry" />
        </mxCell>
        <mxCell id="xWCHFZRPRNQeNoZsIVFs-77" value="" style="edgeStyle=orthogonalEdgeStyle;rounded=0;orthogonalLoop=1;jettySize=auto;html=1;" edge="1" parent="1" source="xWCHFZRPRNQeNoZsIVFs-75">
          <mxGeometry relative="1" as="geometry">
            <mxPoint x="920" y="-560" as="targetPoint" />
            <Array as="points">
              <mxPoint x="920" y="-710" />
            </Array>
          </mxGeometry>
        </mxCell>
        <mxCell id="xWCHFZRPRNQeNoZsIVFs-75" value="Клиенты&lt;br&gt;" style="shape=umlActor;verticalLabelPosition=bottom;verticalAlign=top;html=1;outlineConnect=0;" vertex="1" parent="1">
          <mxGeometry x="980" y="-740" width="30" height="60" as="geometry" />
        </mxCell>
        <mxCell id="xWCHFZRPRNQeNoZsIVFs-78" value="HTTP&amp;nbsp; Запросы&lt;br&gt;" style="text;html=1;align=center;verticalAlign=middle;resizable=0;points=[];autosize=1;strokeColor=none;fillColor=none;" vertex="1" parent="1">
          <mxGeometry x="917" y="-602" width="110" height="30" as="geometry" />
        </mxCell>
        <mxCell id="xWCHFZRPRNQeNoZsIVFs-79" value="" style="endArrow=none;dashed=1;html=1;dashPattern=1 3;strokeWidth=2;rounded=0;" edge="1" parent="1">
          <mxGeometry width="50" height="50" relative="1" as="geometry">
            <mxPoint x="920" y="-553.3333333333334" as="sourcePoint" />
            <mxPoint x="920" y="-553" as="targetPoint" />
            <Array as="points">
              <mxPoint x="160" y="-560" />
              <mxPoint x="160" y="760" />
              <mxPoint x="820" y="760" />
              <mxPoint x="1460" y="760" />
              <mxPoint x="1730" y="760" />
              <mxPoint x="1720" y="-400" />
              <mxPoint x="1720" y="-550" />
              <mxPoint x="1480" y="-550" />
              <mxPoint x="1180" y="-553" />
            </Array>
          </mxGeometry>
        </mxCell>
      </root>
    </mxGraphModel>
  </diagram>
</mxfile>
